<svg width="24" height="24" viewBox="0 0 24 24" fill="none" xmlns="http://www.w3.org/2000/svg">
<path d="M0 12C0 5.37258 5.37258 0 12 0C18.6274 0 24 5.37258 24 12C24 18.6274 18.6274 24 12 24C5.37258 24 0 18.6274 0 12Z" fill="#677798"/>
<path d="M16.7996 8.79999H6.79961V8.39999L15.5996 7.69599V8.39999H16.7996V7.19999C16.7996 6.31999 16.0868 5.70239 15.2164 5.82639L7.18361 6.97359C6.31241 7.09839 5.59961 7.91999 5.59961 8.79999V16.8C5.59961 17.2243 5.76818 17.6313 6.06824 17.9314C6.3683 18.2314 6.77526 18.4 7.19961 18.4H16.7996C17.224 18.4 17.6309 18.2314 17.931 17.9314C18.231 17.6313 18.3996 17.2243 18.3996 16.8V10.4C18.3996 9.97564 18.231 9.56868 17.931 9.26862C17.6309 8.96856 17.224 8.79999 16.7996 8.79999ZM15.5996 14.4048C15.442 14.4047 15.2859 14.3736 15.1403 14.3133C14.9946 14.2529 14.8623 14.1644 14.7509 14.0529C14.6395 13.9414 14.5511 13.8091 14.4908 13.6634C14.4306 13.5177 14.3996 13.3616 14.3996 13.204C14.3997 13.0464 14.4308 12.8903 14.4911 12.7446C14.5515 12.599 14.64 12.4667 14.7515 12.3553C14.863 12.2439 14.9953 12.1555 15.141 12.0952C15.2867 12.0349 15.4428 12.0039 15.6004 12.004C15.9188 12.0041 16.2241 12.1307 16.4491 12.3559C16.6741 12.5811 16.8005 12.8864 16.8004 13.2048C16.8003 13.5232 16.6737 13.8284 16.4485 14.0535C16.2233 14.2785 15.918 14.4049 15.5996 14.4048Z" fill="white"/>
</svg>
