<svg width="24" height="24" viewBox="0 0 24 24" fill="none" xmlns="http://www.w3.org/2000/svg">
<path d="M0 12C0 5.37258 5.37258 0 12 0C18.6274 0 24 5.37258 24 12C24 18.6274 18.6274 24 12 24C5.37258 24 0 18.6274 0 12Z" fill="#677798"/>
<path d="M18.5939 5.4125C18.4644 5.28145 18.31 5.17749 18.1399 5.10667C17.9698 5.03585 17.7872 4.99959 17.603 5H13.7614C13.5094 5.00047 13.2678 5.1003 13.0889 5.27782L5.40922 12.9559C5.14717 13.2185 5 13.5743 5 13.9453C5 14.3163 5.14717 14.6721 5.40922 14.9347L9.06547 18.5909C9.32812 18.8531 9.68406 19.0003 10.0552 19.0003C10.4263 19.0003 10.7822 18.8531 11.0448 18.5909L18.7214 10.9159C18.8993 10.7374 18.9995 10.4958 19.0002 10.2438V6.4C19.0013 6.21669 18.966 6.03498 18.8962 5.86545C18.8265 5.69592 18.7237 5.54195 18.5939 5.4125ZM16.0002 9C15.8024 9 15.609 8.94135 15.4446 8.83147C15.2801 8.72159 15.152 8.56541 15.0763 8.38269C15.0006 8.19996 14.9808 7.99889 15.0194 7.80491C15.058 7.61093 15.1532 7.43275 15.293 7.2929C15.4329 7.15304 15.6111 7.0578 15.8051 7.01922C15.999 6.98063 16.2001 7.00044 16.3828 7.07612C16.5656 7.15181 16.7217 7.27998 16.8316 7.44443C16.9415 7.60888 17.0002 7.80222 17.0002 8C17.0002 8.26522 16.8948 8.51957 16.7073 8.70711C16.5197 8.89465 16.2654 9 16.0002 9Z" fill="white"/>
</svg>
