<svg width="24" height="24" viewBox="0 0 24 24" fill="none" xmlns="http://www.w3.org/2000/svg">
<path d="M0 12C0 5.37258 5.37258 0 12 0V0C18.6274 0 24 5.37258 24 12V12C24 18.6274 18.6274 24 12 24V24C5.37258 24 0 18.6274 0 12V12Z" fill="#677798"/>
<g clip-path="url(#clip0_17306_21720)">
<path d="M10.2419 9.36576C10.1168 9.42411 10.0626 9.57285 10.121 9.69799L11.8084 13.3166L5.98557 16.0318C5.86044 16.0901 5.8063 16.2389 5.86465 16.364L6.49848 17.7232C6.5265 17.7833 6.57725 17.8298 6.63955 17.8525C6.70186 17.8752 6.77062 17.8722 6.83071 17.8442L14.2393 14.3895C14.3645 14.3311 14.4186 14.1824 14.3603 14.0572L12.6729 10.4387L16.3465 8.72564L17.2687 10.7033C17.3115 10.7949 17.4052 10.8518 17.5062 10.8474C17.6072 10.843 17.6956 10.7782 17.7302 10.6831L19.2693 6.45452C19.3165 6.32477 19.2496 6.18131 19.1199 6.13409L14.8913 4.595C14.7963 4.56041 14.6898 4.58647 14.6215 4.66102C14.5531 4.73557 14.5365 4.84393 14.5792 4.93558L15.5014 6.91322L10.2419 9.36576Z" fill="white" stroke="white" stroke-width="0.5" stroke-linejoin="round"/>
</g>
<defs>
<clipPath id="clip0_17306_21720">
<rect width="18" height="18" fill="white" transform="translate(0 17.0002) rotate(-70)"/>
</clipPath>
</defs>
</svg>
