<svg width="16" height="16" viewBox="0 0 16 16" fill="none" xmlns="http://www.w3.org/2000/svg">
<path d="M8.00065 7.66659C7.55862 7.66659 7.1347 7.49099 6.82214 7.17843C6.50958 6.86587 6.33398 6.44195 6.33398 5.99992C6.33398 5.55789 6.50958 5.13397 6.82214 4.82141C7.1347 4.50885 7.55862 4.33325 8.00065 4.33325C8.44268 4.33325 8.8666 4.50885 9.17916 4.82141C9.49172 5.13397 9.66732 5.55789 9.66732 5.99992C9.66732 6.21879 9.62421 6.43552 9.54045 6.63772C9.45669 6.83993 9.33393 7.02367 9.17916 7.17843C9.0244 7.33319 8.84067 7.45596 8.63846 7.53972C8.43625 7.62348 8.21952 7.66659 8.00065 7.66659ZM8.00065 1.33325C6.76297 1.33325 5.57599 1.82492 4.70082 2.70009C3.82565 3.57526 3.33398 4.76224 3.33398 5.99992C3.33398 9.49992 8.00065 14.6666 8.00065 14.6666C8.00065 14.6666 12.6673 9.49992 12.6673 5.99992C12.6673 4.76224 12.1757 3.57526 11.3005 2.70009C10.4253 1.82492 9.23833 1.33325 8.00065 1.33325Z" fill="#818EA2"/>
</svg>
